<svg width="40" height="36" viewBox="0 0 40 36" fill="none" xmlns="http://www.w3.org/2000/svg">
<path fill-rule="evenodd" clip-rule="evenodd" d="M23.5298 0V35.2947H19.5133L10.1014 25.8828H3.52948C1.58354 25.8828 0 24.2993 0 22.3533V12.9414C0 10.9955 1.58354 9.41194 3.52948 9.41194H10.1014L19.5133 0H23.5298ZM21.1769 2.35298H20.4874L11.7649 11.0755V24.2192L20.4874 32.9417H21.1769V2.353V2.35298ZM34.8329 5.16785C38.1647 8.50202 40 12.9327 40 17.6481C40 22.3611 38.1647 26.7918 34.8329 30.1259L33.1693 28.4624C36.0588 25.5729 37.647 21.7329 37.647 17.6481C37.647 13.5609 36.0588 9.72087 33.1693 6.83142L34.8329 5.16785ZM29.8514 10.1625C31.8443 12.1837 32.9408 14.8426 32.9408 17.6474C32.9408 20.4521 31.8443 23.111 29.8514 25.1322L28.1737 23.4804C29.7314 21.9016 30.5878 19.8309 30.5878 17.6474C30.5878 15.4638 29.7314 13.3932 28.1737 11.8143L29.8514 10.1625ZM9.41194 11.7649H3.52948C2.8824 11.7649 2.35298 12.292 2.35298 12.9414V22.3533C2.35298 23.0027 2.8824 23.5298 3.52948 23.5298H9.41194V11.7649Z" fill="#00B473"/>
</svg>
