<svg width="40" height="40" viewBox="0 0 40 40" fill="none" xmlns="http://www.w3.org/2000/svg">
<path d="M29.2304 0L27.4487 3.55616C28.0866 3.96026 28.6167 4.51586 28.9928 5.17441C29.268 5.74103 29.3106 6.39427 29.1116 6.99244C28.84 7.91451 28.374 8.7664 27.7456 9.48974L26.7558 10.5486L26.5182 10.7284L29.369 13.5853L29.5471 13.3456C29.8837 13.0059 30.1807 12.7262 30.4776 12.4665L30.5964 12.3467C31.316 11.7166 32.1592 11.2468 33.071 10.9681C33.6648 10.7757 34.3089 10.8186 34.8726 11.088C35.5305 11.4691 36.0822 12.0121 36.4761 12.6663L40 10.8483C39.2206 9.38712 38.0097 8.20708 36.5355 7.47192C36.2526 7.35124 35.9615 7.25109 35.6644 7.17225L39.6239 3.17657L36.8523 0.359611L32.8928 4.35529C32.7939 4.05562 32.6949 3.75594 32.5761 3.47624C31.8443 1.99596 30.6753 0.78135 29.2304 0ZM17.1146 9.46976C16.884 9.45002 16.6522 9.45002 16.4217 9.46976C16.4217 9.46976 10.344 17.4611 10.7399 18.2802C12.9878 19.6019 14.778 21.5899 15.8674 23.9741C13.5445 22.3851 10.7391 21.6773 7.94852 21.9762C7.94852 21.9762 -0.564221 37.3596 0.0296919 39.9568C2.0094 40.3564 7.13685 37.959 14.2638 33.7835C14.2048 31.991 13.8708 30.2185 13.2739 28.5292C15.0153 29.2387 16.6226 30.2457 18.0252 31.5059C20.1627 31.1226 22.0669 29.9109 23.3309 28.1296C23.5288 27.73 24.7167 24.3737 23.3309 22.7754C24.7933 23.4573 26.1318 24.3826 27.2903 25.5124C28.3189 24.9072 29.3106 24.24 30.2598 23.5146C30.2598 23.5146 31.2893 19.7387 25.7461 14.1447C21.6085 9.9892 18.441 9.44979 17.1146 9.46976Z" fill="#00B473"/>
</svg>
