<svg width="34" height="44" viewBox="0 0 34 44" fill="#00B473" xmlns="http://www.w3.org/2000/svg">
<path d="M18.2285 23.7654C18.6255 23.4406 19.0045 22.9491 19.3264 22.3262C19.4332 22.1197 19.5314 21.8917 19.6252 21.6563H17.3632V24.1221C17.4765 24.1162 17.5883 24.1075 17.7002 24.0974C17.8771 24.0167 18.0538 23.9084 18.2285 23.7654Z" />
<path d="M13.6278 17.0065H16.6392V13.8067H14.123C13.8357 14.7473 13.6574 15.8386 13.6278 17.0065Z" />
<path d="M13.5983 21.6563H11.7714C11.9107 21.8274 12.0616 21.9934 12.219 22.1508C12.9227 22.856 13.7802 23.4031 14.7366 23.7431C14.4768 23.4277 14.2414 23.0653 14.0321 22.6582C13.8711 22.3485 13.7296 22.0129 13.5983 21.6563Z" />
<path d="M15.7715 23.7654C15.9463 23.9084 16.123 24.0167 16.2999 24.0974C16.4132 24.1075 16.5252 24.1162 16.6392 24.1221V21.6563H14.3712C14.7473 22.5968 15.2403 23.3309 15.7715 23.7654Z" />
<path d="M14.1194 20.9317H16.6392V17.7313H13.6263C13.6559 18.899 13.8328 19.9905 14.1194 20.9317Z" />
<path d="M20.3723 17.7312H17.3632V20.9316H19.8794C20.1645 19.9904 20.3413 18.9005 20.3723 17.7312Z" />
<path d="M19.2629 23.7431C20.22 23.4031 21.0775 22.856 21.7834 22.1508C21.9408 21.9934 22.0895 21.8274 22.231 21.6563H20.4019C20.1031 22.4778 19.722 23.1881 19.2629 23.7431Z" />
<path d="M19.8808 13.8067H17.3632V17.0065H20.3759C20.3442 15.8386 20.1688 14.7473 19.8808 13.8067Z" />
<path d="M21.0963 17.0065H23.754C23.6927 15.8349 23.331 14.7444 22.7486 13.8067H20.638C20.9094 14.7704 21.0682 15.856 21.0963 17.0065Z" />
<path d="M20.402 13.0813H22.231C22.0896 12.9095 21.9408 12.745 21.7835 12.5876C21.0783 11.8832 20.2208 11.336 19.2651 10.9953C19.5243 11.3101 19.7603 11.6738 19.9682 12.0795C20.1291 12.3884 20.2727 12.7262 20.402 13.0813Z" />
<path d="M18.2285 10.9722C18.0538 10.8307 17.877 10.7224 17.7002 10.6416C17.5882 10.6315 17.4765 10.6229 17.3632 10.6163V13.0813H19.6289C19.2549 12.14 18.7605 11.4059 18.2285 10.9722Z" />
<path d="M20.6365 20.9317H22.7485C23.331 19.9933 23.6926 18.9034 23.754 17.7313H21.0999C21.0696 18.8832 20.9072 19.9674 20.6365 20.9317Z" />
<path d="M14.3951 31.7327L13.7137 33.8426H15.1054L14.4224 31.7327H14.3951Z" />
<path d="M28.7619 0H5.23827C2.34523 0 0 2.34514 0 5.2381V38.2478C0 41.1401 2.34523 43.4852 5.23827 43.4852H28.7619C31.6549 43.4852 34 41.1401 34 38.2478V5.2381C34 2.34514 31.6549 0 28.7619 0ZM17.0008 8.8934C21.6816 8.8934 25.4762 12.6872 25.4762 17.3689C25.4762 22.0512 21.6816 25.8443 17.0008 25.8451C12.3185 25.8443 8.52531 22.0512 8.52387 17.3689C8.52531 12.6872 12.3185 8.8934 17.0008 8.8934ZM9.18939 33.9401H8.11679C8.08078 33.9401 8.06336 33.9574 8.06336 33.9928V36.0052C8.06336 36.0586 8.0288 36.0939 7.97537 36.0939H6.84926C6.79592 36.0939 6.75983 36.0586 6.75983 36.0052V30.155C6.75983 30.1015 6.79584 30.0661 6.84926 30.0661H9.18939C10.5017 30.0661 11.2898 30.8551 11.2898 32.0071C11.2898 33.1418 10.4929 33.9401 9.18939 33.9401ZM17.073 36.0939H15.9209C15.8589 36.0939 15.8228 36.0672 15.8054 36.0052L15.459 34.9506H13.3499L13.012 36.0052C12.9947 36.0672 12.96 36.0939 12.898 36.0939H11.7359C11.6738 36.0939 11.6565 36.0586 11.6738 36.0052L13.7482 30.155C13.7656 30.1015 13.8016 30.0661 13.8637 30.0661H14.9811C15.0432 30.0661 15.0778 30.1015 15.0966 30.155L17.135 36.0052C17.1524 36.0586 17.135 36.0939 17.073 36.0939ZM19.8677 36.1914C18.9279 36.1914 18.0156 35.8189 17.545 35.3671C17.5104 35.3317 17.4916 35.2696 17.5363 35.2162L18.2105 34.4453C18.2451 34.4006 18.2986 34.4006 18.3433 34.436C18.7418 34.7557 19.2831 35.0566 19.9212 35.0566C20.5506 35.0566 20.9057 34.7643 20.9057 34.3385C20.9057 33.984 20.6921 33.7624 19.9746 33.665L19.6555 33.6209C18.4313 33.4521 17.7484 32.8761 17.7484 31.8121C17.7484 30.7041 18.5828 29.9686 19.885 29.9686C20.6832 29.9686 21.4282 30.2074 21.9334 30.598C21.9868 30.6334 21.9954 30.6688 21.9508 30.7309L21.4109 31.5371C21.3748 31.5818 21.33 31.5905 21.2868 31.5638C20.8248 31.2628 20.3816 31.1033 19.8851 31.1033C19.3538 31.1033 19.0795 31.3776 19.0795 31.7587C19.0795 32.1045 19.3278 32.3261 20.0179 32.4243L20.3383 32.4683C21.5783 32.6365 22.2353 33.2038 22.2353 34.2945C22.2354 35.3851 21.4284 36.1914 19.8677 36.1914ZM25.1457 36.1914C24.2059 36.1914 23.292 35.8189 22.8229 35.3671C22.7868 35.3317 22.7695 35.2696 22.8143 35.2162L23.4869 34.4453C23.523 34.4006 23.5765 34.4006 23.6198 34.436C24.0196 34.7557 24.5595 35.0566 25.1976 35.0566C25.827 35.0566 26.1822 34.7643 26.1822 34.3385C26.1822 33.984 25.9699 33.7624 25.251 33.665L24.932 33.6209C23.7092 33.4521 23.0264 32.8761 23.0264 31.8121C23.0264 30.7041 23.8594 29.9686 25.163 29.9686C25.9613 29.9686 26.7047 30.2074 27.21 30.598C27.2634 30.6334 27.2721 30.6688 27.2288 30.7309L26.6874 31.5371C26.6528 31.5818 26.6081 31.5905 26.5633 31.5638C26.1028 31.2628 25.6596 31.1033 25.163 31.1033C24.6303 31.1033 24.356 31.3776 24.356 31.7587C24.356 32.1045 24.6042 32.3261 25.2957 32.4243L25.6147 32.4683C26.8563 32.6365 27.5116 33.2038 27.5116 34.2945C27.5117 35.3851 26.7047 36.1914 25.1457 36.1914Z"/>
<path d="M14.3756 13.0813H16.6392V10.6163C16.5252 10.6229 16.4133 10.6315 16.3 10.6416C16.1232 10.7224 15.9463 10.8307 15.7716 10.9722C15.3746 11.2971 14.9971 11.7892 14.6752 12.4115C14.5676 12.6194 14.4686 12.8467 14.3756 13.0813Z" />
<path d="M9.10997 31.1915H8.11678C8.08077 31.1915 8.06335 31.2095 8.06335 31.2449V32.7607C8.06335 32.796 8.08077 32.814 8.11678 32.814H9.10997C9.65855 32.814 9.98766 32.495 9.98766 32.007C9.98766 31.5198 9.65855 31.1915 9.10997 31.1915Z" />
<path d="M13.3635 13.8067H11.2515C10.6691 14.7444 10.3089 15.835 10.2461 17.0065H12.9001C12.9305 15.8552 13.0928 14.7704 13.3635 13.8067Z"/>
<path d="M14.7372 10.9953C13.7815 11.3345 12.9233 11.8832 12.2188 12.5876C12.0615 12.745 11.9106 12.9095 11.7712 13.0813H13.5981C13.897 12.2613 14.2803 11.5497 14.7372 10.9953Z"/>
<path d="M13.3635 20.9317C13.0907 19.9674 12.9333 18.8833 12.9038 17.7313H10.2461C10.3089 18.9035 10.6691 19.9933 11.2515 20.9317H13.3635Z"/>
</svg>
